<svg width="754" height="604" viewBox="0 0 754 604" fill="none" xmlns="http://www.w3.org/2000/svg">
      <path d="M565.667 26.7802C476.01 -20.2235 194.124 -2.45219 82.9212 57.4599C-3.95527 96.2439 -16.5815 332.13 17.4743 415.487C60.0439 519.682 184.567 565.123 335.733 598.697C486.899 632.271 731.312 499.711 751.294 390.306C771.275 280.901 677.738 85.5348 565.667 26.7802Z" fill="#010C13"/>
      <g clip-path="url(#clip0_10_107)">
      <path d="M631.086 495.054C617.259 505.015 599.34 505.515 582.019 504.292C579.601 504.121 577.199 503.921 574.82 503.705C574.805 503.701 574.786 503.702 574.772 503.699C574.658 503.688 574.543 503.677 574.434 503.67C573.942 503.624 573.451 503.579 572.965 503.532L573.08 503.752L573.44 504.432C573.311 504.204 573.181 503.981 573.052 503.754C573.013 503.685 572.971 503.617 572.933 503.549C568.446 495.741 563.995 487.645 562.86 478.729C561.687 469.475 564.984 458.995 573.13 454.447C574.198 453.852 575.329 453.378 576.502 453.034C576.989 452.886 577.483 452.766 577.982 452.66C581.037 451.982 584.217 452.129 587.196 453.087C590.175 454.046 592.845 455.78 594.931 458.112C597.018 460.444 598.445 463.29 599.067 466.357C599.689 469.423 599.483 472.6 598.47 475.561C605.375 468.48 604.087 456.993 601.705 447.392C599.318 437.792 596.429 427.11 601.283 418.487C603.982 413.687 608.727 410.709 614.053 409.51C614.216 409.474 614.379 409.439 614.543 409.409C620.888 408.124 627.484 409.279 633.014 412.645C643.197 419.062 648.427 431.228 650.125 443.146C652.859 462.324 646.807 483.728 631.086 495.054Z" fill="#F2F2F2"/>
      <path d="M626.622 464.311C626.221 468.541 625.204 472.69 623.605 476.627C622.132 480.111 620.146 483.356 617.713 486.252C612.655 492.172 606.25 496.791 599.035 499.72C593.579 501.955 587.861 503.491 582.019 504.292C579.601 504.121 577.199 503.921 574.82 503.705C574.805 503.701 574.786 503.703 574.772 503.699C574.658 503.688 574.543 503.677 574.434 503.671C573.942 503.625 573.451 503.579 572.965 503.533L573.08 503.752L573.44 504.432C573.311 504.205 573.181 503.981 573.051 503.754C573.013 503.685 572.971 503.617 572.933 503.549C577.313 499.185 580.583 493.835 582.469 487.947C584.355 482.06 584.803 475.805 583.774 469.709C582.698 463.655 580.206 457.942 576.502 453.034C576.989 452.886 577.483 452.766 577.982 452.66C579.39 454.585 580.625 456.63 581.672 458.772C585.431 466.411 586.63 475.057 585.092 483.43C583.662 491.007 580.101 498.019 574.825 503.643C575.287 503.61 575.753 503.573 576.21 503.531C584.856 502.799 593.484 500.94 601.326 497.133C608.029 493.957 613.849 489.182 618.272 483.228C623.021 476.678 625.114 468.799 625.474 460.792C625.751 452.165 624.846 443.54 622.786 435.158C620.788 426.611 617.752 418.341 613.745 410.531C613.656 410.354 613.638 410.149 613.695 409.959C613.752 409.769 613.88 409.608 614.053 409.51C614.196 409.413 614.373 409.377 614.543 409.409C614.626 409.431 614.703 409.472 614.769 409.528C614.834 409.584 614.886 409.654 614.921 409.733C615.415 410.698 615.9 411.663 616.367 412.639C620.253 420.77 623.115 429.352 624.885 438.189C626.604 446.713 627.521 455.631 626.622 464.311Z" fill="white"/>
      <path d="M103.722 219.045C103.31 219.045 102.902 218.968 102.519 218.818C101.899 218.58 101.366 218.159 100.991 217.61C100.616 217.062 100.417 216.413 100.419 215.748V181.34C100.418 180.175 99.9548 179.059 99.1313 178.235C98.3078 177.411 97.1912 176.948 96.0265 176.947H88.9805C86.0693 176.944 83.2782 175.786 81.2197 173.727C79.1612 171.669 78.0033 168.878 78 165.966V96.7866C78.0033 93.8754 79.1612 91.0844 81.2197 89.0259C83.2782 86.9673 86.0693 85.8094 88.9805 85.8062H337.516C340.427 85.8094 343.218 86.9673 345.276 89.0259C347.335 91.0844 348.493 93.8754 348.496 96.7866V165.966C348.493 168.878 347.335 171.669 345.276 173.727C343.218 175.786 340.427 176.944 337.516 176.947H145.682C145.073 176.948 144.471 177.074 143.913 177.32C143.356 177.565 142.856 177.923 142.444 178.371L106.141 217.974C105.835 218.311 105.461 218.58 105.045 218.765C104.628 218.949 104.178 219.045 103.722 219.045ZM88.9805 87.2693C86.4572 87.2722 84.0381 88.2758 82.2539 90.06C80.4696 91.8442 79.466 94.2633 79.4632 96.7866V165.966C79.466 168.49 80.4696 170.909 82.2539 172.693C84.0381 174.477 86.4572 175.481 88.9805 175.484H96.0265C97.5791 175.485 99.0676 176.103 100.165 177.201C101.263 178.299 101.881 179.787 101.883 181.34V215.748C101.883 216.117 101.994 216.477 102.202 216.782C102.411 217.086 102.706 217.321 103.05 217.454C103.393 217.588 103.77 217.615 104.129 217.531C104.488 217.447 104.814 217.257 105.063 216.985L141.365 177.383C141.914 176.785 142.581 176.308 143.324 175.981C144.067 175.654 144.87 175.485 145.682 175.484H337.516C340.039 175.481 342.458 174.477 344.242 172.693C346.027 170.909 347.03 168.49 347.033 165.966V96.7866C347.03 94.2633 346.027 91.8442 344.242 90.06C342.458 88.2758 340.039 87.2722 337.516 87.2693H88.9805Z" fill="#CCCCCC"/>
      <path d="M104.934 116.964C110.24 116.964 114.542 112.662 114.542 107.356C114.542 102.049 110.24 97.7476 104.934 97.7476C99.6273 97.7476 95.3255 102.049 95.3255 107.356C95.3255 112.662 99.6273 116.964 104.934 116.964Z" fill="#CCCCCC"/>
      <path d="M326.306 160.522H100.19C99.5167 160.523 98.8497 160.391 98.2273 160.134C97.6049 159.876 97.0392 159.499 96.5627 159.023C96.0862 158.547 95.7082 157.982 95.4503 157.36C95.1924 156.738 95.0596 156.071 95.0596 155.397C95.0596 154.724 95.1924 154.057 95.4503 153.435C95.7082 152.813 96.0862 152.248 96.5627 151.772C97.0392 151.296 97.6049 150.918 98.2273 150.661C98.8497 150.404 99.5167 150.272 100.19 150.273H326.306C326.979 150.272 327.646 150.404 328.269 150.661C328.891 150.918 329.457 151.296 329.934 151.772C330.41 152.248 330.788 152.813 331.046 153.435C331.304 154.057 331.437 154.724 331.437 155.397C331.437 156.071 331.304 156.738 331.046 157.36C330.788 157.982 330.41 158.547 329.934 159.023C329.457 159.499 328.891 159.876 328.269 160.134C327.646 160.391 326.979 160.523 326.306 160.522Z" fill="#CCCCCC"/>
      <path d="M252.642 138.743H100.19C99.5167 138.744 98.8497 138.612 98.2273 138.355C97.6049 138.098 97.0392 137.72 96.5627 137.244C96.0862 136.768 95.7082 136.203 95.4503 135.581C95.1924 134.959 95.0596 134.292 95.0596 133.619C95.0596 132.945 95.1924 132.278 95.4503 131.656C95.7082 131.034 96.0862 130.469 96.5627 129.993C97.0392 129.517 97.6049 129.14 98.2273 128.882C98.8497 128.625 99.5167 128.493 100.19 128.494H252.642C253.316 128.493 253.983 128.625 254.605 128.882C255.228 129.14 255.793 129.517 256.27 129.993C256.746 130.469 257.124 131.034 257.382 131.656C257.64 132.278 257.773 132.945 257.773 133.619C257.773 134.292 257.64 134.959 257.382 135.581C257.124 136.203 256.746 136.768 256.27 137.244C255.793 137.72 255.228 138.098 254.605 138.355C253.983 138.612 253.316 138.744 252.642 138.743Z" fill="#CCCCCC"/>
      <path d="M103.722 463.097C103.31 463.096 102.902 463.019 102.519 462.87C101.899 462.631 101.366 462.21 100.991 461.662C100.616 461.113 100.417 460.464 100.419 459.8V425.391C100.418 424.227 99.9548 423.11 99.1313 422.287C98.3078 421.463 97.1912 421 96.0265 420.998H88.9805C86.0693 420.995 83.2782 419.837 81.2197 417.779C79.1612 415.72 78.0033 412.929 78 410.018V340.838C78.0033 337.927 79.1612 335.136 81.2197 333.077C83.2782 331.019 86.0693 329.861 88.9805 329.858H337.516C340.427 329.861 343.218 331.019 345.276 333.077C347.335 335.136 348.493 337.927 348.496 340.838V410.018C348.493 412.929 347.335 415.72 345.276 417.779C343.218 419.837 340.427 420.995 337.516 420.998H145.682C145.073 420.999 144.471 421.126 143.913 421.371C143.356 421.616 142.856 421.974 142.444 422.423L106.141 462.026C105.835 462.363 105.461 462.632 105.045 462.816C104.628 463.001 104.178 463.096 103.722 463.097ZM88.9805 331.321C86.4572 331.324 84.0381 332.327 82.2539 334.111C80.4696 335.896 79.466 338.315 79.4632 340.838V410.018C79.466 412.541 80.4696 414.96 82.2539 416.744C84.0381 418.529 86.4572 419.532 88.9805 419.535H96.0265C97.5791 419.537 99.0676 420.155 100.165 421.252C101.263 422.35 101.881 423.839 101.883 425.391V459.8C101.883 460.169 101.994 460.529 102.202 460.833C102.411 461.138 102.706 461.372 103.05 461.506C103.393 461.64 103.77 461.666 104.129 461.583C104.488 461.499 104.814 461.309 105.063 461.037L141.365 421.434C141.914 420.836 142.581 420.359 143.324 420.032C144.067 419.705 144.87 419.536 145.682 419.535H337.516C340.039 419.532 342.458 418.529 344.242 416.744C346.027 414.96 347.03 412.541 347.033 410.018V340.838C347.03 338.315 346.027 335.896 344.242 334.112C342.458 332.327 340.039 331.324 337.516 331.321L88.9805 331.321Z" fill="#CCCCCC"/>
      <path d="M470.742 336.267C470.287 336.267 469.836 336.171 469.42 335.987C469.003 335.802 468.63 335.533 468.323 335.196L432.021 295.593C431.609 295.145 431.108 294.787 430.551 294.541C429.994 294.296 429.391 294.169 428.783 294.169H236.949C234.037 294.165 231.246 293.007 229.188 290.949C227.129 288.89 225.971 286.099 225.968 283.188V214.008C225.971 211.097 227.129 208.306 229.188 206.248C231.246 204.189 234.037 203.031 236.949 203.028H485.484C488.395 203.031 491.186 204.189 493.245 206.248C495.303 208.306 496.461 211.097 496.464 214.008V283.188C496.461 286.099 495.303 288.89 493.245 290.949C491.186 293.007 488.395 294.165 485.484 294.169H478.438C477.273 294.17 476.157 294.633 475.333 295.457C474.509 296.28 474.046 297.397 474.045 298.562V332.97C474.048 333.634 473.848 334.284 473.473 334.832C473.098 335.38 472.565 335.801 471.945 336.04C471.562 336.189 471.154 336.267 470.742 336.267ZM236.949 204.491C234.425 204.494 232.006 205.497 230.222 207.282C228.438 209.066 227.434 211.485 227.431 214.008V283.188C227.434 285.711 228.438 288.13 230.222 289.915C232.006 291.699 234.425 292.702 236.949 292.705H428.783C429.594 292.706 430.397 292.875 431.14 293.202C431.883 293.529 432.55 294.007 433.099 294.604L469.402 334.207C469.651 334.479 469.976 334.669 470.336 334.753C470.695 334.837 471.071 334.81 471.415 334.676C471.758 334.542 472.054 334.308 472.262 334.003C472.47 333.699 472.582 333.339 472.582 332.97V298.562C472.583 297.009 473.201 295.52 474.299 294.423C475.397 293.325 476.885 292.707 478.438 292.705H485.484C488.007 292.702 490.426 291.699 492.21 289.915C493.995 288.13 494.998 285.711 495.001 283.188V214.008C494.998 211.485 493.995 209.066 492.21 207.282C490.426 205.497 488.007 204.494 485.484 204.491L236.949 204.491Z" fill="#3F3D56"/>
      <path d="M104.934 361.015C110.24 361.015 114.542 356.714 114.542 351.407C114.542 346.101 110.24 341.799 104.934 341.799C99.6273 341.799 95.3255 346.101 95.3255 351.407C95.3255 356.714 99.6273 361.015 104.934 361.015Z" fill="#CCCCCC"/>
      <path d="M326.306 404.573H100.19C99.5167 404.574 98.8497 404.442 98.2273 404.185C97.6049 403.928 97.0392 403.55 96.5627 403.074C96.0862 402.598 95.7082 402.033 95.4503 401.411C95.1924 400.789 95.0596 400.122 95.0596 399.449C95.0596 398.775 95.1924 398.108 95.4503 397.486C95.7082 396.864 96.0862 396.299 96.5627 395.823C97.0392 395.347 97.6049 394.97 98.2273 394.713C98.8497 394.455 99.5167 394.323 100.19 394.324H326.306C327.665 394.324 328.969 394.864 329.93 395.825C330.891 396.786 331.43 398.09 331.43 399.449C331.43 400.808 330.891 402.111 329.93 403.072C328.969 404.033 327.665 404.573 326.306 404.573Z" fill="#CCCCCC"/>
      <path d="M252.642 382.794H100.19C99.5167 382.795 98.8497 382.663 98.2273 382.406C97.6049 382.149 97.0392 381.771 96.5627 381.296C96.0862 380.82 95.7082 380.254 95.4503 379.632C95.1924 379.01 95.0596 378.343 95.0596 377.67C95.0596 376.996 95.1924 376.33 95.4503 375.707C95.7082 375.085 96.0862 374.52 96.5627 374.044C97.0392 373.568 97.6049 373.191 98.2273 372.934C98.8497 372.677 99.5167 372.545 100.19 372.545H252.642C253.316 372.545 253.983 372.677 254.605 372.934C255.228 373.191 255.793 373.568 256.27 374.044C256.746 374.52 257.124 375.085 257.382 375.707C257.64 376.33 257.773 376.996 257.773 377.67C257.773 378.343 257.64 379.01 257.382 379.632C257.124 380.254 256.746 380.82 256.27 381.296C255.793 381.771 255.228 382.149 254.605 382.406C253.983 382.663 253.316 382.795 252.642 382.794Z" fill="#CCCCCC"/>
      <path d="M252.902 233.545C258.208 233.545 262.51 229.243 262.51 223.937C262.51 218.63 258.208 214.328 252.902 214.328C247.595 214.328 243.294 218.63 243.294 223.937C243.294 229.243 247.595 233.545 252.902 233.545Z" fill="#3F3D56"/>
      <path d="M474.274 277.103H248.158C246.799 277.103 245.496 276.563 244.535 275.602C243.574 274.641 243.034 273.338 243.034 271.978C243.034 270.619 243.574 269.316 244.535 268.355C245.496 267.394 246.799 266.854 248.158 266.854H474.274C475.633 266.854 476.937 267.394 477.898 268.355C478.859 269.316 479.399 270.619 479.399 271.978C479.399 273.338 478.859 274.641 477.898 275.602C476.937 276.563 475.633 277.103 474.274 277.103Z" fill="#BA1200"/>
      <path d="M400.61 255.324H248.158C247.485 255.325 246.818 255.193 246.195 254.936C245.573 254.678 245.007 254.301 244.531 253.825C244.054 253.349 243.676 252.784 243.418 252.162C243.161 251.54 243.028 250.873 243.028 250.199C243.028 249.526 243.161 248.859 243.418 248.237C243.676 247.615 244.054 247.05 244.531 246.574C245.007 246.098 245.573 245.72 246.195 245.463C246.818 245.206 247.485 245.074 248.158 245.075H400.61C401.284 245.074 401.951 245.206 402.573 245.463C403.196 245.72 403.761 246.098 404.238 246.574C404.714 247.05 405.092 247.615 405.35 248.237C405.608 248.859 405.741 249.526 405.741 250.199C405.741 250.873 405.608 251.54 405.35 252.162C405.092 252.784 404.714 253.349 404.238 253.825C403.761 254.301 403.196 254.678 402.573 254.936C401.951 255.193 401.284 255.325 400.61 255.324Z" fill="#BA1200"/>
      <path d="M474.176 349.436C474.395 348.384 474.843 347.392 475.487 346.531C476.132 345.67 476.957 344.96 477.905 344.453C478.853 343.945 479.901 343.652 480.975 343.593C482.049 343.534 483.123 343.711 484.121 344.112L501.283 324.392L504.928 337.479L488.072 354.199C487.287 355.831 485.931 357.118 484.26 357.817C482.59 358.516 480.721 358.577 479.008 357.99C477.295 357.403 475.857 356.208 474.967 354.631C474.076 353.055 473.795 351.207 474.176 349.436Z" fill="#FFB8B8"/>
      <path d="M568.369 256.894C578.293 256.894 586.337 248.849 586.337 238.926C586.337 229.002 578.293 220.958 568.369 220.958C558.445 220.958 550.401 229.002 550.401 238.926C550.401 248.849 558.445 256.894 568.369 256.894Z" fill="#FFB8B8"/>
      <path d="M547.26 486.252L538.292 486.251L534.024 451.656L547.262 451.657L547.26 486.252Z" fill="#FFB8B8"/>
      <path d="M549.548 494.946L520.628 494.945V494.579C520.628 493.101 520.919 491.637 521.485 490.271C522.05 488.906 522.88 487.665 523.925 486.619C524.97 485.574 526.211 484.745 527.577 484.179C528.942 483.614 530.406 483.323 531.884 483.323H531.885L549.548 483.323L549.548 494.946Z" fill="#2F2E41"/>
      <path d="M574.328 495.762L565.36 495.762L564.118 461.993L574.331 461.167L574.328 495.762Z" fill="#FFB8B8"/>
      <path d="M576.616 504.456L547.696 504.455V504.089C547.696 502.611 547.987 501.148 548.553 499.782C549.119 498.416 549.948 497.175 550.993 496.13C552.038 495.085 553.279 494.256 554.645 493.69C556.011 493.124 557.474 492.833 558.953 492.833H558.953L576.616 492.834L576.616 504.456Z" fill="#2F2E41"/>
      <path d="M571.778 489.449L564.793 488.627C564.001 488.532 563.27 488.153 562.736 487.561C562.201 486.968 561.899 486.202 561.886 485.405L560.577 394.441C560.573 394.184 560.479 393.936 560.311 393.741C560.143 393.546 559.912 393.416 559.658 393.374C559.404 393.333 559.143 393.382 558.922 393.513C558.7 393.644 558.532 393.848 558.446 394.091L548.756 421.452L549.449 472.736C549.46 473.583 549.145 474.401 548.569 475.022C547.993 475.642 547.2 476.016 546.355 476.067L537.237 476.454C536.403 476.502 535.581 476.232 534.938 475.7C534.294 475.167 533.876 474.411 533.766 473.583L529.003 415.568L529 415.532L536.226 354.943L590.497 358.87L575.432 486.566C575.336 487.366 574.951 488.103 574.349 488.638C573.747 489.174 572.97 489.47 572.164 489.472C572.035 489.472 571.906 489.464 571.778 489.449Z" fill="#2F2E41"/>
      <path d="M536.458 360.314C535.971 360.054 535.557 359.675 535.256 359.212C534.955 358.749 534.776 358.218 534.735 357.667C534.735 357.667 539.616 327.318 541.404 326.749L537.491 294.294C537.022 290.335 537.349 286.323 538.452 282.492C539.555 278.662 541.412 275.091 543.915 271.988C546.324 268.977 549.319 266.487 552.718 264.666C556.117 262.845 559.849 261.731 563.69 261.393C564.237 261.343 564.781 261.306 565.322 261.28C569.952 261.032 574.574 261.905 578.794 263.826C583.014 265.747 586.708 268.659 589.562 272.313C592.523 275.999 594.549 280.346 595.468 284.983C596.388 289.62 596.174 294.411 594.844 298.947L592.649 306.585V359.958C592.647 360.479 592.523 360.992 592.286 361.456C592.05 361.92 591.707 362.322 591.287 362.63C584.454 367.646 576.731 369.419 569.226 369.419C555.026 369.419 541.604 363.069 536.458 360.314Z" fill="#BA1200"/>
      <path d="M494.327 350.547L484.888 343.489C484.517 343.212 484.21 342.86 483.984 342.457C483.759 342.053 483.621 341.606 483.58 341.146C483.539 340.685 483.595 340.221 483.745 339.784C483.895 339.347 484.136 338.946 484.451 338.608L540.682 278.271C542.487 276.351 544.921 275.142 547.541 274.864C550.162 274.585 552.795 275.255 554.964 276.753L554.964 276.753C556.285 277.674 557.387 278.875 558.191 280.271C558.995 281.666 559.482 283.222 559.616 284.827C559.751 286.432 559.53 288.047 558.969 289.556C558.408 291.066 557.522 292.434 556.372 293.562L498.604 350.261C498.097 350.764 497.438 351.086 496.73 351.18C496.022 351.274 495.302 351.133 494.681 350.779C494.558 350.709 494.44 350.632 494.327 350.547Z" fill="#BA1200"/>
      <path d="M566.569 342.558C566.982 341.565 567.607 340.675 568.401 339.949C569.195 339.224 570.139 338.681 571.165 338.36C572.191 338.039 573.276 337.946 574.342 338.089C575.407 338.232 576.429 338.608 577.334 339.188L597.882 323.025L599.015 336.563L579.329 349.836C578.253 351.292 576.68 352.303 574.909 352.677C573.137 353.051 571.29 352.762 569.717 351.865C568.144 350.968 566.955 349.525 566.375 347.81C565.794 346.095 565.864 344.226 566.569 342.558Z" fill="#FFB8B8"/>
      <path d="M584.96 348.868C584.416 348.699 583.926 348.391 583.538 347.974C583.15 347.557 582.878 347.046 582.749 346.492L580.673 337.774C580.521 337.155 580.554 336.505 580.769 335.905C580.984 335.305 581.37 334.782 581.88 334.4L595.845 319.297L575.304 287.622C573.749 285.708 572.873 283.332 572.812 280.867C572.75 278.401 573.508 275.985 574.966 273.996C576.128 272.411 577.689 271.161 579.489 270.374C581.29 269.586 583.267 269.288 585.22 269.511C587.172 269.733 589.032 270.468 590.609 271.64C592.187 272.812 593.426 274.381 594.202 276.186L613.3 313.358C615.198 317.051 615.672 321.314 614.63 325.334C613.588 329.353 611.104 332.849 607.651 335.156L588.135 348.193C587.537 348.727 586.764 349.023 585.962 349.024C585.622 349.024 585.284 348.971 584.96 348.868Z" fill="#BA1200"/>
      <path d="M581.683 254.989C581.26 255.243 580.784 255.397 580.291 255.437C579.799 255.478 579.304 255.404 578.845 255.223C578.386 255.041 577.975 254.757 577.643 254.391C577.311 254.025 577.068 253.588 576.933 253.113L576.922 253.068C576.556 251.573 576.845 250.008 576.939 248.472C577.034 246.936 576.874 245.249 575.822 244.126C573.861 242.031 570.399 243.166 567.576 242.649C565.923 242.289 564.457 241.339 563.454 239.977C562.45 238.614 561.978 236.933 562.124 235.247C562.163 234.928 562.224 234.608 562.293 234.288C562.465 233.478 562.447 232.639 562.24 231.837C562.033 231.035 561.643 230.292 561.101 229.666C560.559 229.04 559.879 228.549 559.114 228.23C558.35 227.911 557.522 227.774 556.696 227.829C553.847 228.007 550.776 228.886 548.408 226.789C547.539 225.961 546.933 224.896 546.666 223.726C546.399 222.556 546.482 221.333 546.906 220.211C548.231 216.318 552.025 214.264 555.783 213.125C560.432 211.755 565.328 211.438 570.115 212.197C574.902 212.957 579.459 214.773 583.456 217.514C585.843 219.178 588.075 221.272 589.103 223.993C590.131 226.715 589.661 230.158 587.385 231.97C589.166 233.837 590.426 236.138 591.038 238.645C591.65 241.151 591.592 243.774 590.871 246.251C589.762 249.895 584.393 253.411 581.683 254.989Z" fill="#2F2E41"/>
      </g>
      <defs>
        <clipPath id="clip0_10_107">
      <rect width="616.522" height="419.194" fill="white" transform="translate(78 85.8062)"/>
      </clipPath>
      </defs>
    </svg>