<svg width="29" height="30" viewBox="0 0 29 30" fill="none" xmlns="http://www.w3.org/2000/svg">
<path d="M9.6998 23.2852C9.6998 23.4023 9.56532 23.4961 9.39577 23.4961C9.20282 23.5137 9.06835 23.4199 9.06835 23.2852C9.06835 23.168 9.20282 23.0742 9.37238 23.0742C9.54778 23.0566 9.6998 23.1504 9.6998 23.2852ZM7.88145 23.0215C7.84052 23.1387 7.95746 23.2734 8.13286 23.3086C8.28488 23.3672 8.46028 23.3086 8.49536 23.1914C8.53044 23.0742 8.41935 22.9395 8.24395 22.8867C8.09194 22.8457 7.92238 22.9043 7.88145 23.0215ZM10.4657 22.9219C10.2962 22.9629 10.1792 23.0742 10.1968 23.209C10.2143 23.3262 10.3663 23.4023 10.5417 23.3613C10.7113 23.3203 10.8282 23.209 10.8107 23.0918C10.7931 22.9805 10.6353 22.9043 10.4657 22.9219ZM14.3129 0.46875C6.20343 0.46875 0 6.63867 0 14.7656C0 21.2637 4.08105 26.8242 9.91028 28.7812C10.6587 28.916 10.9218 28.4531 10.9218 28.0723C10.9218 27.709 10.9042 25.7051 10.9042 24.4746C10.9042 24.4746 6.81149 25.3535 5.95202 22.7285C5.95202 22.7285 5.28548 21.0234 4.32661 20.584C4.32661 20.584 2.9877 19.6641 4.42016 19.6816C4.42016 19.6816 5.87601 19.7988 6.67702 21.1934C7.95746 23.4551 10.1032 22.8047 10.9393 22.418C11.0738 21.4805 11.4538 20.8301 11.8748 20.4434C8.60645 20.0801 5.30887 19.6055 5.30887 13.9688C5.30887 12.3574 5.75323 11.5488 6.68871 10.5176C6.53669 10.1367 6.03972 8.56641 6.84073 6.53906C8.0627 6.1582 10.875 8.12109 10.875 8.12109C12.0444 7.79297 13.3014 7.62305 14.5468 7.62305C15.7921 7.62305 17.0492 7.79297 18.2185 8.12109C18.2185 8.12109 21.0308 6.15234 22.2528 6.53906C23.0538 8.57227 22.5569 10.1367 22.4048 10.5176C23.3403 11.5547 23.9133 12.3633 23.9133 13.9688C23.9133 19.623 20.4696 20.0742 17.2012 20.4434C17.7391 20.9062 18.1952 21.7852 18.1952 23.1621C18.1952 25.1367 18.1776 27.5801 18.1776 28.0605C18.1776 28.4414 18.4466 28.9043 19.1891 28.7695C25.0359 26.8242 29 21.2637 29 14.7656C29 6.63867 22.4224 0.46875 14.3129 0.46875ZM5.68306 20.6777C5.60706 20.7363 5.6246 20.8711 5.72399 20.9824C5.81754 21.0762 5.95202 21.1172 6.02802 21.041C6.10403 20.9824 6.08649 20.8477 5.9871 20.7363C5.89355 20.6426 5.75907 20.6016 5.68306 20.6777ZM5.05161 20.2031C5.01069 20.2793 5.06915 20.373 5.18609 20.4316C5.27964 20.4902 5.39657 20.4727 5.4375 20.3906C5.47843 20.3145 5.41996 20.2207 5.30302 20.1621C5.18609 20.127 5.09254 20.1445 5.05161 20.2031ZM6.94597 22.2891C6.85242 22.3652 6.8875 22.541 7.02198 22.6523C7.15645 22.7871 7.32601 22.8047 7.40202 22.7109C7.47802 22.6348 7.44294 22.459 7.32601 22.3477C7.19738 22.2129 7.02198 22.1953 6.94597 22.2891ZM6.27944 21.4277C6.18589 21.4863 6.18589 21.6387 6.27944 21.7734C6.37298 21.9082 6.53085 21.9668 6.60685 21.9082C6.7004 21.832 6.7004 21.6797 6.60685 21.5449C6.525 21.4102 6.37298 21.3516 6.27944 21.4277Z" fill="white"/>
</svg>
