<svg width="30" height="30" viewBox="0 0 30 30" fill="none" xmlns="http://www.w3.org/2000/svg">
<g clip-path="url(#clip0_417_413)">
<path d="M9.375 15C9.375 16.3008 9.44531 17.5547 9.56836 18.75H20.4316C20.5605 17.5547 20.625 16.3008 20.625 15C20.625 13.6992 20.5547 12.4453 20.4316 11.25H9.56836C9.43945 12.4453 9.375 13.6992 9.375 15ZM7.6875 11.25H0.474609C0.164062 12.4512 0 13.7051 0 15C0 16.2949 0.164062 17.5488 0.474609 18.75H7.6875C7.56445 17.543 7.5 16.2891 7.5 15C7.5 13.7109 7.56445 12.457 7.6875 11.25ZM1.08984 9.375H7.92773C8.51367 5.63086 9.67383 2.49609 11.168 0.492187C6.58008 1.70508 2.84766 5.0332 1.0957 9.375H1.08984ZM9.82617 9.375H20.1738C19.8164 7.24219 19.2656 5.35547 18.5918 3.82617C17.9766 2.44336 17.291 1.44141 16.6289 0.808594C15.9727 0.1875 15.4277 0 15 0C14.5723 0 14.0273 0.1875 13.3711 0.808594C12.709 1.44141 12.0234 2.44336 11.4082 3.82617C10.7285 5.34961 10.1777 7.23633 9.82617 9.375ZM22.0723 9.375H28.9102C27.1523 5.0332 23.4258 1.70508 18.832 0.492187C20.3262 2.49609 21.4863 5.63086 22.0723 9.375ZM29.5254 11.25H22.3125C22.4355 12.457 22.5 13.7109 22.5 15C22.5 16.2891 22.4355 17.543 22.3125 18.75H29.5254C29.8359 17.5488 30 16.2949 30 15C30 13.7051 29.8359 12.4512 29.5254 11.25ZM18.5918 26.168C19.2715 24.6445 19.8164 22.7578 20.1738 20.625H9.82617C10.1836 22.7578 10.7344 24.6445 11.4082 26.168C12.0234 27.5508 12.709 28.5527 13.3711 29.1855C14.0273 29.8125 14.5723 30 15 30C15.4277 30 15.9727 29.8125 16.6289 29.1914C17.291 28.5586 17.9766 27.5566 18.5918 26.1738V26.168ZM22.0723 20.625C21.4863 24.3691 20.3262 27.5039 18.832 29.5078C23.4258 28.2949 27.1523 24.9668 28.9102 20.625H22.0723ZM1.08984 20.625C2.84766 24.9668 6.57422 28.2949 11.1621 29.5078C9.66797 27.5039 8.51367 24.3691 7.92188 20.625H1.08984Z" fill="white"/>
</g>
<defs>
<clipPath id="clip0_417_413">
<rect width="30" height="30" fill="white" transform="matrix(-1 0 0 1 30 0)"/>
</clipPath>
</defs>
</svg>
