<svg width="30" height="30" viewBox="0 0 30 30" fill="none" xmlns="http://www.w3.org/2000/svg">
<path d="M3.75 6.5625C3.23438 6.5625 2.8125 6.98438 2.8125 7.5V8.79492L12.9199 17.0918C14.1328 18.0879 15.873 18.0879 17.0859 17.0918L27.1875 8.79492V7.5C27.1875 6.98438 26.7656 6.5625 26.25 6.5625H3.75ZM2.8125 12.4336V22.5C2.8125 23.0156 3.23438 23.4375 3.75 23.4375H26.25C26.7656 23.4375 27.1875 23.0156 27.1875 22.5V12.4336L18.8672 19.2656C16.6172 21.1113 13.377 21.1113 11.1328 19.2656L2.8125 12.4336ZM0 7.5C0 5.43164 1.68164 3.75 3.75 3.75H26.25C28.3184 3.75 30 5.43164 30 7.5V22.5C30 24.5684 28.3184 26.25 26.25 26.25H3.75C1.68164 26.25 0 24.5684 0 22.5V7.5Z" fill="white"/>
</svg>
