<svg width="240" height="166" viewBox="0 0 240 166" fill="none" xmlns="http://www.w3.org/2000/svg">
<path d="M34.1039 6.816V12.144H20.4239V57H13.8719V12.144H0.119875V6.816H34.1039ZM59.377 57.648C55.681 57.648 52.321 56.808 49.297 55.128C46.321 53.448 43.969 51.072 42.241 48C40.561 44.88 39.721 41.28 39.721 37.2C39.721 33.168 40.585 29.616 42.313 26.544C44.089 23.424 46.489 21.048 49.513 19.416C52.537 17.736 55.921 16.896 59.665 16.896C63.409 16.896 66.793 17.736 69.817 19.416C72.841 21.048 75.217 23.4 76.945 26.472C78.721 29.544 79.609 33.12 79.609 37.2C79.609 41.28 78.697 44.88 76.873 48C75.097 51.072 72.673 53.448 69.601 55.128C66.529 56.808 63.121 57.648 59.377 57.648ZM59.377 51.888C61.729 51.888 63.937 51.336 66.001 50.232C68.065 49.128 69.721 47.472 70.969 45.264C72.265 43.056 72.913 40.368 72.913 37.2C72.913 34.032 72.289 31.344 71.041 29.136C69.793 26.928 68.161 25.296 66.145 24.24C64.129 23.136 61.945 22.584 59.593 22.584C57.193 22.584 54.985 23.136 52.969 24.24C51.001 25.296 49.417 26.928 48.217 29.136C47.017 31.344 46.417 34.032 46.417 37.2C46.417 40.416 46.993 43.128 48.145 45.336C49.345 47.544 50.929 49.2 52.897 50.304C54.865 51.36 57.025 51.888 59.377 51.888ZM135.672 16.824C138.744 16.824 141.48 17.472 143.88 18.768C146.28 20.016 148.176 21.912 149.568 24.456C150.96 27 151.656 30.096 151.656 33.744V57H145.176V34.68C145.176 30.744 144.192 27.744 142.224 25.68C140.304 23.568 137.688 22.512 134.376 22.512C130.968 22.512 128.256 23.616 126.24 25.824C124.224 27.984 123.216 31.128 123.216 35.256V57H116.736V34.68C116.736 30.744 115.752 27.744 113.784 25.68C111.864 23.568 109.248 22.512 105.936 22.512C102.528 22.512 99.8157 23.616 97.7997 25.824C95.7837 27.984 94.7757 31.128 94.7757 35.256V57H88.2237V17.544H94.7757V23.232C96.0717 21.168 97.7997 19.584 99.9597 18.48C102.168 17.376 104.592 16.824 107.232 16.824C110.544 16.824 113.472 17.568 116.016 19.056C118.56 20.544 120.456 22.728 121.704 25.608C122.808 22.824 124.632 20.664 127.176 19.128C129.72 17.592 132.552 16.824 135.672 16.824ZM159.955 37.128C159.955 33.096 160.771 29.568 162.403 26.544C164.035 23.472 166.267 21.096 169.099 19.416C171.979 17.736 175.171 16.896 178.675 16.896C182.131 16.896 185.131 17.64 187.675 19.128C190.219 20.616 192.115 22.488 193.363 24.744V17.544H199.987V57H193.363V49.656C192.067 51.96 190.123 53.88 187.531 55.416C184.987 56.904 182.011 57.648 178.603 57.648C175.099 57.648 171.931 56.784 169.099 55.056C166.267 53.328 164.035 50.904 162.403 47.784C160.771 44.664 159.955 41.112 159.955 37.128ZM193.363 37.2C193.363 34.224 192.763 31.632 191.563 29.424C190.363 27.216 188.731 25.536 186.667 24.384C184.651 23.184 182.419 22.584 179.971 22.584C177.523 22.584 175.291 23.16 173.275 24.312C171.259 25.464 169.651 27.144 168.451 29.352C167.251 31.56 166.651 34.152 166.651 37.128C166.651 40.152 167.251 42.792 168.451 45.048C169.651 47.256 171.259 48.96 173.275 50.16C175.291 51.312 177.523 51.888 179.971 51.888C182.419 51.888 184.651 51.312 186.667 50.16C188.731 48.96 190.363 47.256 191.563 45.048C192.763 42.792 193.363 40.176 193.363 37.2ZM188.251 6.384L172.915 14.592V9.696L188.251 0.695995V6.384ZM225.028 57.648C222.004 57.648 219.292 57.144 216.892 56.136C214.492 55.08 212.596 53.64 211.204 51.816C209.812 49.944 209.044 47.808 208.9 45.408H215.668C215.86 47.376 216.772 48.984 218.404 50.232C220.084 51.48 222.268 52.104 224.956 52.104C227.452 52.104 229.42 51.552 230.86 50.448C232.3 49.344 233.02 47.952 233.02 46.272C233.02 44.544 232.252 43.272 230.716 42.456C229.18 41.592 226.804 40.752 223.588 39.936C220.66 39.168 218.26 38.4 216.388 37.632C214.564 36.816 212.98 35.64 211.636 34.104C210.34 32.52 209.692 30.456 209.692 27.912C209.692 25.896 210.292 24.048 211.492 22.368C212.692 20.688 214.396 19.368 216.604 18.408C218.812 17.4 221.332 16.896 224.164 16.896C228.532 16.896 232.06 18 234.748 20.208C237.436 22.416 238.876 25.44 239.068 29.28H232.516C232.372 27.216 231.532 25.56 229.996 24.312C228.508 23.064 226.492 22.44 223.948 22.44C221.596 22.44 219.724 22.944 218.332 23.952C216.94 24.96 216.244 26.28 216.244 27.912C216.244 29.208 216.652 30.288 217.468 31.152C218.332 31.968 219.388 32.64 220.636 33.168C221.932 33.648 223.708 34.2 225.964 34.824C228.796 35.592 231.1 36.36 232.876 37.128C234.652 37.848 236.164 38.952 237.412 40.44C238.708 41.928 239.38 43.872 239.428 46.272C239.428 48.432 238.828 50.376 237.628 52.104C236.428 53.832 234.724 55.2 232.516 56.208C230.356 57.168 227.86 57.648 225.028 57.648ZM234.244 7.608L224.308 13.512L214.3 7.608V2.424L224.308 8.544L234.244 2.424V7.608ZM49.9436 165L29.2796 142.104V165H22.7276V114.816H29.2796V138.072L50.0156 114.816H58.2956L35.5436 139.944L58.5116 165H49.9436ZM101.829 143.76C101.829 145.008 101.757 146.328 101.613 147.72H70.0772C70.3172 151.608 71.6372 154.656 74.0372 156.864C76.4852 159.024 79.4372 160.104 82.8932 160.104C85.7252 160.104 88.0772 159.456 89.9492 158.16C91.8692 156.816 93.2132 155.04 93.9812 152.832H101.037C99.9812 156.624 97.8692 159.72 94.7012 162.12C91.5332 164.472 87.5972 165.648 82.8932 165.648C79.1492 165.648 75.7892 164.808 72.8132 163.128C69.8852 161.448 67.5812 159.072 65.9012 156C64.2212 152.88 63.3812 149.28 63.3812 145.2C63.3812 141.12 64.1972 137.544 65.8292 134.472C67.4612 131.4 69.7412 129.048 72.6692 127.416C75.6452 125.736 79.0532 124.896 82.8932 124.896C86.6372 124.896 89.9492 125.712 92.8292 127.344C95.7092 128.976 97.9172 131.232 99.4532 134.112C101.037 136.944 101.829 140.16 101.829 143.76ZM95.0612 142.392C95.0612 139.896 94.5092 137.76 93.4052 135.984C92.3012 134.16 90.7892 132.792 88.8692 131.88C86.9972 130.92 84.9092 130.44 82.6052 130.44C79.2932 130.44 76.4612 131.496 74.1092 133.608C71.8052 135.72 70.4852 138.648 70.1492 142.392H95.0612ZM117.03 132.888C118.374 130.536 120.342 128.616 122.934 127.128C125.526 125.64 128.478 124.896 131.79 124.896C135.342 124.896 138.534 125.736 141.366 127.416C144.198 129.096 146.43 131.472 148.062 134.544C149.694 137.568 150.51 141.096 150.51 145.128C150.51 149.112 149.694 152.664 148.062 155.784C146.43 158.904 144.174 161.328 141.294 163.056C138.462 164.784 135.294 165.648 131.79 165.648C128.382 165.648 125.382 164.904 122.79 163.416C120.246 161.928 118.326 160.032 117.03 157.728V165H110.478V111.72H117.03V132.888ZM143.814 145.128C143.814 142.152 143.214 139.56 142.014 137.352C140.814 135.144 139.182 133.464 137.118 132.312C135.102 131.16 132.87 130.584 130.422 130.584C128.022 130.584 125.79 131.184 123.726 132.384C121.71 133.536 120.078 135.24 118.83 137.496C117.63 139.704 117.03 142.272 117.03 145.2C117.03 148.176 117.63 150.792 118.83 153.048C120.078 155.256 121.71 156.96 123.726 158.16C125.79 159.312 128.022 159.888 130.422 159.888C132.87 159.888 135.102 159.312 137.118 158.16C139.182 156.96 140.814 155.256 142.014 153.048C143.214 150.792 143.814 148.152 143.814 145.128ZM165.686 131.952C166.838 129.696 168.47 127.944 170.582 126.696C172.742 125.448 175.358 124.824 178.43 124.824V131.592H176.702C169.358 131.592 165.686 135.576 165.686 143.544V165H159.134V125.544H165.686V131.952ZM192.545 111.72V165H185.993V111.72H192.545ZM239.712 143.76C239.712 145.008 239.64 146.328 239.496 147.72H207.96C208.2 151.608 209.52 154.656 211.92 156.864C214.368 159.024 217.32 160.104 220.776 160.104C223.608 160.104 225.96 159.456 227.832 158.16C229.752 156.816 231.096 155.04 231.864 152.832H238.92C237.864 156.624 235.752 159.72 232.584 162.12C229.416 164.472 225.48 165.648 220.776 165.648C217.032 165.648 213.672 164.808 210.696 163.128C207.768 161.448 205.464 159.072 203.784 156C202.104 152.88 201.264 149.28 201.264 145.2C201.264 141.12 202.08 137.544 203.712 134.472C205.344 131.4 207.624 129.048 210.552 127.416C213.528 125.736 216.936 124.896 220.776 124.896C224.52 124.896 227.832 125.712 230.712 127.344C233.592 128.976 235.8 131.232 237.336 134.112C238.92 136.944 239.712 140.16 239.712 143.76ZM232.944 142.392C232.944 139.896 232.392 137.76 231.288 135.984C230.184 134.16 228.672 132.792 226.752 131.88C224.88 130.92 222.792 130.44 220.488 130.44C217.176 130.44 214.344 131.496 211.992 133.608C209.688 135.72 208.368 138.648 208.032 142.392H232.944Z" fill="black"/>
</svg>
